<?xml version="1.0" encoding="utf-8"?>
<!-- Generator: Adobe Illustrator 23.0.1, SVG Export Plug-In . SVG Version: 6.00 Build 0)  -->
<svg version="1.1" id="Layer_1" xmlns="http://www.w3.org/2000/svg" xmlns:xlink="http://www.w3.org/1999/xlink" x="0px" y="0px"
	 viewBox="0 0 308.05 54.34" style="enable-background:new 0 0 308.05 54.34;" xml:space="preserve">
<style type="text/css">
	.st0{fill:#1A1A1A;}
	.st1{fill:url(#SVGID_1_);}
</style>
<path class="st0" d="M51.47,27.16c0,15.9-10.38,27.19-25.59,27.19C10.99,54.34,0,43.65,0,28.87S10.79,3.31,25.76,3.31
	c12.73,0,23.15,7.97,25.2,19.26H36.94c-1.76-4.09-6.1-6.72-11.06-6.72c-7.28,0-12.18,5.26-12.18,13.02
	c0,7.68,4.82,12.94,12.18,12.94c5.11,0,9.49-2.47,11.01-6.22H24.83v-8.44L51.47,27.16z"/>
<path class="st0" d="M53.4,34.38c0-11.62,8.79-19.96,21.01-19.96c12.18,0,21.01,8.35,21.01,19.96c0,11.58-8.83,19.96-21.01,19.96
	C62.19,54.34,53.4,45.96,53.4,34.38z M74.41,42.75c4.71,0,8.08-3.41,8.08-8.37c0-4.93-3.38-8.37-8.08-8.37
	c-4.71,0-8.08,3.41-8.08,8.37S69.71,42.75,74.41,42.75L74.41,42.75z"/>
<path class="st0" d="M133.1,16.59h-13.2v36.53h-13.44V16.59h-13.2V4.54h39.83V16.59z"/>
<path class="st0" d="M130.91,34.38c0-11.62,8.79-19.96,21.01-19.96c12.18,0,21.01,8.35,21.01,19.96c0,11.58-8.83,19.96-21.01,19.96
	C139.7,54.34,130.91,45.96,130.91,34.38z M151.92,42.75c4.71,0,8.08-3.41,8.08-8.37c0-4.93-3.38-8.37-8.08-8.37
	s-8.08,3.41-8.08,8.37S147.21,42.75,151.92,42.75L151.92,42.75z"/>
<path class="st0" d="M209.67,27.47c4.58,2.17,7.45,6.52,7.45,11.82c0,7.87-6.79,13.83-15.76,13.83h-22.39V4.54h21.94
	c8.61,0,14.9,5.26,14.9,12.43C215.81,21.31,213.38,25.22,209.67,27.47L209.67,27.47z M203.88,37.69c0-2.58-1.9-4.4-4.79-4.4h-7.27
	v8.83h7.27C201.99,42.13,203.88,40.31,203.88,37.69z M203.11,19.19c0-2.52-1.73-4.23-4.53-4.23h-6.76v8.46h6.76
	C201.38,23.42,203.11,21.71,203.11,19.19L203.11,19.19z"/>
<path class="st0" d="M223.51,15.64h12.91v37.47h-12.91V15.64z M223.61,0h12.71v10.95h-12.71V0z"/>
<path class="st0" d="M275.69,41.64v11.48h-33.8V51.2l14.35-24.16h-13.08v-11.4h32.38v2.11l-15.6,23.89H275.69z"/>
<path class="st0" d="M308.05,41.64v11.48h-33.78V51.2l15.78-24.16h-14.5v-11.4h32.36v2.11l-14.15,23.89H308.05z"/>
<linearGradient id="SVGID_1_" gradientUnits="userSpaceOnUse" x1="274.9974" y1="49.0253" x2="274.9974" y2="18.137">
	<stop  offset="0" style="stop-color:#FFE501"/>
	<stop  offset="1" style="stop-color:#FFE501"/>
</linearGradient>
<polygon class="st1" points="275.69,49.03 290.05,27.04 275.55,27.04 275.55,18.14 275.29,18.14 259.95,41.64 275.69,41.64 "/>
</svg>
